<?xml version="1.0" encoding="utf-8"?>
<!-- Generator: Adobe Illustrator 16.0.3, SVG Export Plug-In . SVG Version: 6.00 Build 0)  -->
<!DOCTYPE svg PUBLIC "-//W3C//DTD SVG 1.1//EN" "http://www.w3.org/Graphics/SVG/1.1/DTD/svg11.dtd">
<svg version="1.1" id="Layer_1" xmlns="http://www.w3.org/2000/svg" xmlns:xlink="http://www.w3.org/1999/xlink" x="0px" y="0px"
	 width="1920px" height="1080px" viewBox="0 0 1920 1080" enable-background="new 0 0 1920 1080" xml:space="preserve">
<g>
	
		<rect x="1194.891" y="518.616" transform="matrix(0.8465 -0.5323 0.5323 0.8465 -131.6716 767.4536)" opacity="0.6" fill="#59CCFF" width="140.794" height="186.982"/>
	
		<rect x="933.987" y="477.537" transform="matrix(0.6799 -0.7333 0.7333 0.6799 -144.5598 1003.0896)" opacity="0.6" fill="#63B3FF" width="285.532" height="379.2"/>
	
		<rect x="531.803" y="436.457" transform="matrix(0.4662 -0.8847 0.8847 0.4662 -240.1693 1046.2959)" opacity="0.6" fill="#6C9AFF" width="430.27" height="571.42"/>
	
		<rect x="-970.431" y="145.218" transform="matrix(0.2951 0.9555 -0.9555 0.2951 307.8472 1021.2493)" opacity="0.6" fill="#894FFF" width="864.486" height="1148.076"/>
	
		<rect x="176.339" y="339.378" transform="matrix(0.2222 -0.975 0.975 0.2222 -342.3903 1013.194)" opacity="0.6" fill="#7681FF" width="575.009" height="763.637"/>
	
		<rect x="-324.406" y="242.298" transform="matrix(-0.0377 -0.9993 0.9993 -0.0377 -682.9073 782.8365)" opacity="0.6" fill="#7F68FF" width="719.749" height="955.856"/>
</g>
<g>
	
		<rect x="1191.406" y="544.056" transform="matrix(0.6406 -0.7679 0.7679 0.6406 -36.0825 1197.9985)" opacity="0.6" fill="#59CCFF" width="140.794" height="186.982"/>
	
		<rect x="956.736" y="558.544" transform="matrix(0.4201 -0.9075 0.9075 0.4201 -41.2913 1431.6764)" opacity="0.6" fill="#63B3FF" width="285.531" height="379.201"/>
	
		<rect x="587.699" y="616.689" transform="matrix(0.17 -0.9854 0.9854 0.17 -222.912 1540.1385)" opacity="0.6" fill="#6C9AFF" width="430.269" height="571.419"/>
	
		<rect x="-852.537" y="722.719" transform="matrix(0.5759 0.8175 -0.8175 0.5759 881.8849 893.5735)" opacity="0.6" fill="#894FFF" width="864.487" height="1148.076"/>
	
		<rect x="245.791" y="607.14" transform="matrix(-0.09 -0.9959 0.9959 -0.09 -403.6746 1609.0612)" opacity="0.6" fill="#7681FF" width="575.008" height="763.636"/>
	
		<rect x="-234.288" y="642.482" transform="matrix(-0.3447 -0.9387 0.9387 -0.3447 -882.8831 1624.4746)" opacity="0.6" fill="#7F68FF" width="719.748" height="955.856"/>
</g>
<g>
	
		<rect x="1195.953" y="569.328" transform="matrix(0.372 -0.9282 0.9282 0.372 180.0248 1591.7269)" opacity="0.6" fill="#59CCFF" width="140.793" height="186.982"/>
	
		<rect x="1003.403" y="628.557" transform="matrix(0.1191 -0.9929 0.9929 0.1191 197.3616 1858.7574)" opacity="0.6" fill="#63B3FF" width="285.531" height="379.201"/>
	
		<rect x="696.553" y="770.829" transform="matrix(-0.1428 -0.9897 0.9897 -0.1428 -3.7929 2109.7915)" opacity="0.6" fill="#6C9AFF" width="430.269" height="571.419"/>
	
		<rect x="-561.955" y="1235.523" transform="matrix(0.8003 0.5996 -0.5996 0.8003 1059.037 439.082)" opacity="0.6" fill="#894FFF" width="864.487" height="1148.076"/>
	
		<rect x="394.585" y="840.334" transform="matrix(-0.3933 -0.9194 0.9194 -0.3933 -173.2715 2329.968)" opacity="0.6" fill="#7681FF" width="575.008" height="763.635"/>
	
		<rect x="-24.917" y="995.232" transform="matrix(-0.6179 -0.7863 0.7863 -0.6179 -616.3787 2646.7681)" opacity="0.6" fill="#7F68FF" width="719.747" height="955.856"/>
</g>
<g>
	
		<rect x="1208.087" y="591.958" transform="matrix(0.0669 -0.9978 0.9978 0.0669 508.9806 1915.1752)" opacity="0.6" fill="#59CCFF" width="140.793" height="186.982"/>
	
		<rect x="1069.421" y="680.721" transform="matrix(-0.1936 -0.9811 0.9811 -0.1936 592.9828 2228.0571)" opacity="0.6" fill="#63B3FF" width="285.532" height="379.202"/>
	
		<rect x="847.71" y="883.786" transform="matrix(-0.4417 -0.8972 0.8972 -0.4417 483.0703 2639.6038)" opacity="0.6" fill="#6C9AFF" width="430.27" height="571.419"/>
	
		<rect x="-127.13" y="1633.435" transform="matrix(0.9464 0.3229 -0.3229 0.9464 729.1311 19.7253)" opacity="0.6" fill="#894FFF" width="864.487" height="1148.076"/>
	
		<rect x="608.158" y="1016.134" transform="matrix(-0.6582 -0.7529 0.7529 -0.6582 432.7169 2992.3682)" opacity="0.6" fill="#7681FF" width="575.008" height="763.636"/>
	
		<rect x="283.211" y="1266.017" transform="matrix(-0.8306 -0.5568 0.5568 -0.8306 206.1253 3550.5913)" opacity="0.6" fill="#7F68FF" width="719.748" height="955.856"/>
</g>
<g>
	
		<rect x="1226.62" y="609.732" transform="matrix(-0.2447 -0.9696 0.9696 -0.2447 932.4841 2132.8696)" opacity="0.6" fill="#59CCFF" width="140.792" height="186.982"/>
	
		<rect x="1148.327" y="709.933" transform="matrix(-0.4873 -0.8732 0.8732 -0.4873 1134.701 2465.3008)" opacity="0.6" fill="#63B3FF" width="285.532" height="379.203"/>
	
		<rect x="1026.376" y="944.504" transform="matrix(-0.6973 -0.7168 0.7168 -0.6973 1225.4637 2977.9302)" opacity="0.6" fill="#6C9AFF" width="430.27" height="571.417"/>
	
		<rect x="409.374" y="1877.502" transform="matrix(0.9999 0.0146 -0.0146 0.9999 35.9533 -12.0498)" opacity="0.6" fill="#894FFF" width="864.487" height="1148.076"/>
	
		<rect x="865.604" y="1117.333" transform="matrix(-0.8586 -0.5126 0.5126 -0.8586 1374.6921 3377.4521)" opacity="0.6" fill="#7681FF" width="575.008" height="763.636"/>
	
		<rect x="659.937" y="1428.333" transform="matrix(-0.962 -0.2729 0.2729 -0.962 1480.6471 4018.4805)" opacity="0.6" fill="#7F68FF" width="719.747" height="955.856"/>
</g>
<g>
	
		<rect x="1249.738" y="620.908" transform="matrix(-0.5323 -0.8466 0.8466 -0.5323 1418.0784 2212.2402)" opacity="0.6" fill="#59CCFF" width="140.793" height="186.982"/>
	
		<rect x="1232.399" y="713.331" transform="matrix(-0.7333 -0.6799 0.6799 -0.7333 1769.6117 2500.0481)" opacity="0.6" fill="#63B3FF" width="285.532" height="379.203"/>
	
		<rect x="1215.06" y="947.04" transform="matrix(-0.8847 -0.4662 0.4662 -0.8847 2120.7522 2990.0923)" opacity="0.6" fill="#6C9AFF" width="430.27" height="571.417"/>
	
		<rect x="995.041" y="1943.835" transform="matrix(0.9555 -0.2951 0.2951 0.9555 -679.3997 533.255)" opacity="0.6" fill="#894FFF" width="864.487" height="1148.077"/>
	
		<rect x="1141.721" y="1134.024" transform="matrix(-0.975 -0.2222 0.2222 -0.975 2485.8979 3311.3667)" opacity="0.6" fill="#7681FF" width="575.008" height="763.637"/>
	
		<rect x="1068.382" y="1466.29" transform="matrix(-0.9993 0.0377 -0.0377 -0.9993 2928.8342 3833.1748)" opacity="0.6" fill="#7F68FF" width="719.747" height="955.856"/>
</g>
<g>
	
		<rect x="1275.179" y="624.393" transform="matrix(-0.7679 -0.6406 0.6406 -0.7679 1918.8873 2131.1221)" opacity="0.6" fill="#59CCFF" width="140.793" height="186.982"/>
	
		<rect x="1313.406" y="690.583" transform="matrix(-0.9075 -0.4201 0.4201 -0.9075 2407.9199 2290.624)" opacity="0.6" fill="#63B3FF" width="285.532" height="379.203"/>
	
		<rect x="1395.292" y="891.145" transform="matrix(-0.9854 -0.17 0.17 -0.9854 2997.3467 2610.3508)" opacity="0.6" fill="#6C9AFF" width="430.271" height="571.417"/>
	
		<rect x="1572.542" y="1825.941" transform="matrix(0.8175 -0.5759 0.5759 0.8175 -1016.3018 1592.4529)" opacity="0.6" fill="#894FFF" width="864.486" height="1148.076"/>
	
		<rect x="1409.482" y="1064.574" transform="matrix(-0.9959 0.09 -0.09 -0.9959 3517.22 2734.2446)" opacity="0.6" fill="#7681FF" width="575.008" height="763.638"/>
	
		<rect x="1468.566" y="1376.172" transform="matrix(-0.9387 0.3447 -0.3447 -0.9387 4183.8936 2964.3748)" opacity="0.6" fill="#7F68FF" width="719.746" height="955.856"/>
</g>
<g>
	
		<rect x="1300.45" y="619.846" transform="matrix(-0.9282 -0.372 0.372 -0.9282 2377.9565 1885.4299)" opacity="0.6" fill="#59CCFF" width="140.795" height="186.983"/>
	
		<rect x="1383.419" y="643.916" transform="matrix(-0.9929 -0.1191 0.1191 -0.9929 2942.2666 1842.8259)" opacity="0.6" fill="#63B3FF" width="285.532" height="379.203"/>
	
		<rect x="1549.43" y="782.29" transform="matrix(-0.9897 0.1428 -0.1428 -0.9897 3663.5908 1872.9968)" opacity="0.6" fill="#6C9AFF" width="430.271" height="571.418"/>
	
		<rect x="2085.346" y="1535.36" transform="matrix(0.5996 -0.8003 0.8003 0.5996 -680.0696 2859.5938)" opacity="0.6" fill="#894FFF" width="864.486" height="1148.075"/>
	
		<rect x="1642.677" y="915.779" transform="matrix(-0.9194 0.3933 -0.3933 -0.9194 4215.168 1731.4098)" opacity="0.6" fill="#7681FF" width="575.008" height="763.638"/>
	
		<rect x="1821.316" y="1166.801" transform="matrix(-0.7863 0.6179 -0.6179 -0.7863 4912.4424 1590.2063)" opacity="0.6" fill="#7F68FF" width="719.746" height="955.856"/>
</g>
<g>
	
		<rect x="1323.08" y="607.712" transform="matrix(-0.9978 -0.0669 0.0669 -0.9978 2736.8853 1494.1224)" opacity="0.6" fill="#59CCFF" width="140.794" height="186.982"/>
	
		<rect x="1435.583" y="577.898" transform="matrix(-0.9811 0.1936 -0.1936 -0.9811 3275.417 1214.9447)" opacity="0.6" fill="#63B3FF" width="285.534" height="379.202"/>
	
		<rect x="1662.387" y="631.132" transform="matrix(-0.8972 0.4417 -0.4417 -0.8972 3966.9355 910.0986)" opacity="0.6" fill="#6C9AFF" width="430.272" height="571.419"/>
	
		<rect x="2483.257" y="1100.536" transform="matrix(0.3229 -0.9464 0.9464 0.3229 389.2178 3893.1843)" opacity="0.6" fill="#894FFF" width="864.487" height="1148.074"/>
	
		<rect x="1818.478" y="702.206" transform="matrix(-0.7529 0.6582 -0.6582 -0.7529 4404.9717 514.0089)" opacity="0.6" fill="#7681FF" width="575.008" height="763.638"/>
	
		<rect x="2092.1" y="858.672" transform="matrix(-0.5568 0.8306 -0.8306 -0.5568 4927.5527 44.2429)" opacity="0.6" fill="#7F68FF" width="719.748" height="955.857"/>
</g>
<g>
	
		<rect x="1340.854" y="589.179" transform="matrix(-0.9696 0.2447 -0.2447 -0.9696 2946.6313 999.3307)" opacity="0.6" fill="#59CCFF" width="140.794" height="186.981"/>
	
		<rect x="1464.794" y="498.992" transform="matrix(-0.8732 0.4873 -0.4873 -0.8732 3346.8955 506.5825)" opacity="0.6" fill="#63B3FF" width="285.534" height="379.201"/>
	
		<rect x="1723.105" y="452.466" transform="matrix(-0.7168 0.6973 -0.6973 -0.7168 3842.2397 -84.3035)" opacity="0.6" fill="#6C9AFF" width="430.272" height="571.42"/>
	
		<rect x="2727.325" y="564.031" transform="matrix(0.0146 -0.9999 0.9999 0.0146 1975.3936 4280.6484)" opacity="0.6" fill="#894FFF" width="864.488" height="1148.075"/>
	
		<rect x="1919.677" y="444.76" transform="matrix(-0.5126 0.8586 -0.8586 -0.5126 4048.334 -644.8275)" opacity="0.6" fill="#7681FF" width="575.008" height="763.638"/>
	
		<rect x="2254.416" y="481.947" transform="matrix(-0.2729 0.962 -0.962 -0.2729 4251.2227 -1293.1938)" opacity="0.6" fill="#7F68FF" width="719.748" height="955.857"/>
</g>
<g>
	
		<rect x="1352.03" y="566.061" transform="matrix(-0.8465 0.5323 -0.5323 -0.8465 2977.6675 460.723)" opacity="0.6" fill="#59CCFF" width="140.794" height="186.981"/>
	
		<rect x="1468.192" y="414.92" transform="matrix(-0.6799 0.7333 -0.7333 -0.6799 3149.584 -165.72)" opacity="0.6" fill="#63B3FF" width="285.535" height="379.201"/>
	
		<rect x="1725.641" y="263.782" transform="matrix(-0.4662 0.8847 -0.8847 -0.4662 3331.688 -911.3032)" opacity="0.6" fill="#6C9AFF" width="430.272" height="571.42"/>
	
		<rect x="2793.658" y="-21.636" transform="matrix(-0.2951 -0.9555 0.9555 -0.2951 3649.957 3797.6699)" opacity="0.6" fill="#894FFF" width="864.489" height="1148.075"/>
	
		<rect x="1936.368" y="168.642" transform="matrix(-0.2222 0.975 -0.975 -0.2222 3254.7122 -1495.5059)" opacity="0.6" fill="#7681FF" width="575.009" height="763.639"/>
	
		<rect x="2292.373" y="73.501" transform="matrix(0.0377 0.9993 -0.9993 0.0377 3103.2383 -2119.7295)" opacity="0.6" fill="#7F68FF" width="719.747" height="955.857"/>
</g>
<g>
	
		<rect x="1355.514" y="540.621" transform="matrix(-0.6406 0.7679 -0.7679 -0.6406 2826.2876 -54.5618)" opacity="0.6" fill="#59CCFF" width="140.795" height="186.981"/>
	
		<rect x="1445.444" y="333.913" transform="matrix(-0.4201 0.9075 -0.9075 -0.4201 2730.4443 -697.8729)" opacity="0.6" fill="#63B3FF" width="285.535" height="379.201"/>
	
		<rect x="1669.746" y="83.549" transform="matrix(-0.17 0.9854 -0.9854 -0.17 2569.1938 -1425.4133)" opacity="0.6" fill="#6C9AFF" width="430.271" height="571.42"/>
	
		<rect x="2675.763" y="-599.137" transform="matrix(-0.5759 -0.8175 0.8175 -0.5759 4918.3809 2501.3389)" opacity="0.6" fill="#894FFF" width="864.489" height="1148.075"/>
	
		<rect x="1866.917" y="-99.119" transform="matrix(0.09 0.9959 -0.9959 0.09 2242.1421 -1888.4177)" opacity="0.6" fill="#7681FF" width="575.009" height="763.639"/>
	<polygon opacity="0.6" fill="#7F68FF" points="2237.524,653.797 1989.448,-21.846 2886.732,-351.306 3134.809,324.342 	"/>
</g>
<g>
	
		<rect x="1350.967" y="515.349" transform="matrix(-0.372 0.9282 -0.9282 -0.372 2515.2488 -484.0387)" opacity="0.6" fill="#59CCFF" width="140.796" height="186.981"/>
	
		<rect x="1398.777" y="263.901" transform="matrix(-0.1191 0.9929 -0.9929 -0.1191 2175.3735 -1023.0774)" opacity="0.6" fill="#63B3FF" width="285.536" height="379.201"/>
	
		<rect x="1560.893" y="-70.59" transform="matrix(0.1428 0.9897 -0.9897 0.1428 1735.2538 -1573.4236)" opacity="0.6" fill="#6C9AFF" width="430.271" height="571.42"/>
	
		<rect x="2385.181" y="-1111.941" transform="matrix(-0.8003 -0.5996 0.5996 -0.8003 5394.8008 720.812)" opacity="0.6" fill="#894FFF" width="864.489" height="1148.075"/>
	
		<rect x="1718.122" y="-332.314" transform="matrix(0.3933 0.9194 -0.9194 0.3933 1262.2661 -1813.9327)" opacity="0.6" fill="#7681FF" width="575.009" height="763.639"/>
	
		<rect x="1992.884" y="-679.432" transform="matrix(0.6179 0.7863 -0.7863 0.6179 740.5908 -1926.8995)" opacity="0.6" fill="#7F68FF" width="719.747" height="955.857"/>
</g>
<g>
	
		<rect x="1338.833" y="492.719" transform="matrix(-0.0669 0.9978 -0.9978 -0.0669 2088.4592 -780.6205)" opacity="0.6" fill="#59CCFF" width="140.796" height="186.981"/>
	
		<rect x="1332.76" y="211.736" transform="matrix(0.1936 0.9811 -0.9811 0.1936 1583.6479 -1123.9707)" opacity="0.6" fill="#63B3FF" width="285.536" height="379.201"/>
	
		<rect x="1409.734" y="-183.547" transform="matrix(0.4417 0.8972 -0.8972 0.4417 998.8249 -1400.7363)" opacity="0.6" fill="#6C9AFF" width="430.271" height="571.421"/>
	
		<rect x="1950.357" y="-1509.852" transform="matrix(-0.9464 -0.3229 0.3229 -0.9464 4939.748 -1052.1576)" opacity="0.6" fill="#894FFF" width="864.488" height="1148.075"/>
	
		<rect x="1504.549" y="-508.115" transform="matrix(0.6582 0.7529 -0.7529 0.6582 517.4604 -1392.3203)" opacity="0.6" fill="#7681FF" width="575.009" height="763.638"/>
	
		<rect x="1684.755" y="-950.217" transform="matrix(0.8306 0.5569 -0.5569 0.8306 83.3401 -1218.5535)" opacity="0.6" fill="#7F68FF" width="719.746" height="955.856"/>
</g>
<g>
	
		<rect x="1320.301" y="474.946" transform="matrix(0.2447 0.9696 -0.9696 0.2447 1601.6219 -919.0695)" opacity="0.6" fill="#59CCFF" width="140.796" height="186.981"/>
	
		<rect x="1253.853" y="182.524" transform="matrix(0.4873 0.8732 -0.8732 0.4873 1041.043 -1028.8004)" opacity="0.6" fill="#63B3FF" width="285.535" height="379.201"/>
	
		<rect x="1231.068" y="-244.265" transform="matrix(0.6973 0.7168 -0.7168 0.6973 467.4462 -1024.0392)" opacity="0.6" fill="#6C9AFF" width="430.27" height="571.42"/>
	
		<rect x="1413.853" y="-1753.92" transform="matrix(-0.9999 -0.0146 0.0146 -0.9999 3709.2607 -2332.6252)" opacity="0.6" fill="#894FFF" width="864.488" height="1148.075"/>
	
		<rect x="1247.104" y="-609.314" transform="matrix(0.8586 0.5126 -0.5126 0.8586 100.3469 -818.8242)" opacity="0.6" fill="#7681FF" width="575.008" height="763.638"/>
	<polygon opacity="0.6" fill="#7F68FF" points="1883.678,-76.602 1191.256,-273.037 1452.127,-1192.606 2144.555,-996.169 	"/>
</g>
<g>
	
		<rect x="1297.183" y="463.77" transform="matrix(0.5323 0.8466 -0.8466 0.5323 1111.3545 -897.1003)" opacity="0.6" fill="#59CCFF" width="140.797" height="186.98"/>
	
		<rect x="1169.782" y="179.126" transform="matrix(0.7333 0.6799 -0.6799 0.7333 600.8 -794.0968)" opacity="0.6" fill="#63B3FF" width="285.536" height="379.202"/>
	
		<rect x="1042.385" y="-246.801" transform="matrix(0.8847 0.4662 -0.4662 0.8847 163.156 -581.7657)" opacity="0.6" fill="#6C9AFF" width="430.27" height="571.42"/>
	
		<rect x="828.185" y="-1820.253" transform="matrix(-0.9555 0.2951 -0.2951 -0.9555 2097.0215 -2808.8569)" opacity="0.6" fill="#894FFF" width="864.488" height="1148.076"/>
	
		<rect x="970.986" y="-626.005" transform="matrix(0.975 0.2222 -0.2222 0.975 -22.7974 -285.735)" opacity="0.6" fill="#7681FF" width="575.008" height="763.638"/>
	
		<rect x="899.584" y="-1150.488" transform="matrix(0.9993 -0.0377 0.0377 0.9993 26.2648 47.0274)" opacity="0.6" fill="#7F68FF" width="719.748" height="955.856"/>
</g>
<g>
	
		<rect x="1271.742" y="460.284" transform="matrix(0.7679 0.6406 -0.6406 0.7679 666.3301 -731.2498)" opacity="0.6" fill="#59CCFF" width="140.796" height="186.981"/>
	
		<rect x="1088.775" y="201.874" transform="matrix(0.9075 0.4201 -0.4201 0.9075 278.365 -481.1091)" opacity="0.6" fill="#63B3FF" width="285.535" height="379.201"/>
	
		<rect x="862.152" y="-190.906" transform="matrix(0.9854 0.17 -0.17 0.9854 31.7968 -181.7556)" opacity="0.6" fill="#6C9AFF" width="430.27" height="571.421"/>
	
		<rect x="250.684" y="-1702.359" transform="matrix(-0.8175 0.5759 -0.5759 -0.8175 591.4611 -2444.0464)" opacity="0.6" fill="#894FFF" width="864.489" height="1148.076"/>
	
		<rect x="703.225" y="-556.553" transform="matrix(0.9959 -0.09 0.09 0.9959 19.7392 88.4288)" opacity="0.6" fill="#7681FF" width="575.008" height="763.637"/>
	
		<rect x="499.401" y="-1060.37" transform="matrix(0.9387 -0.3447 0.3447 0.9387 253.4032 260.4762)" opacity="0.6" fill="#7F68FF" width="719.747" height="955.856"/>
</g>
<g>
	
		<rect x="1246.47" y="464.831" transform="matrix(0.9282 0.372 -0.372 0.9282 302.1871 -449.7893)" opacity="0.6" fill="#59CCFF" width="140.796" height="186.981"/>
	
		<rect x="1018.763" y="248.541" transform="matrix(0.9929 0.1191 -0.1191 0.9929 60.4354 -135.1915)" opacity="0.6" fill="#63B3FF" width="285.535" height="379.2"/>
	
		<rect x="708.014" y="-82.051" transform="matrix(0.9897 -0.1428 0.1428 0.9897 -19.6246 133.9536)" opacity="0.6" fill="#6C9AFF" width="430.27" height="571.42"/>
	
		<rect x="-262.12" y="-1411.777" transform="matrix(-0.5996 0.8003 -0.8003 -0.5996 -398.3435 -1476.1692)" opacity="0.6" fill="#894FFF" width="864.489" height="1148.077"/>
	
		<rect x="470.03" y="-407.759" transform="matrix(0.9194 -0.3933 0.3933 0.9194 71.2627 295.871)" opacity="0.6" fill="#7681FF" width="575.008" height="763.638"/>
	
		<rect x="146.651" y="-850.999" transform="matrix(0.7863 -0.6179 0.6179 0.7863 338.7738 233.2365)" opacity="0.6" fill="#7F68FF" width="719.747" height="955.856"/>
</g>
<g>
	
		<rect x="1223.839" y="476.964" transform="matrix(0.9978 0.0669 -0.0669 0.9978 41.0842 -85.3472)" opacity="0.6" fill="#59CCFF" width="140.796" height="186.981"/>
	
		<rect x="966.597" y="314.559" transform="matrix(0.9811 -0.1936 0.1936 0.9811 -76.6083 224.2762)" opacity="0.6" fill="#63B3FF" width="285.536" height="379.2"/>
	
		<rect x="595.056" y="69.107" transform="matrix(0.8972 -0.4417 0.4417 0.8972 -73.4048 394.3488)" opacity="0.6" fill="#6C9AFF" width="430.27" height="571.42"/>
	
		<rect x="-660.031" y="-976.953" transform="matrix(-0.3229 0.9464 -0.9464 -0.3229 -682.6696 -317.4305)" opacity="0.6" fill="#894FFF" width="864.489" height="1148.077"/>
	
		<rect x="294.23" y="-194.185" transform="matrix(0.7529 -0.6582 0.6582 0.7529 20.2754 429.2631)" opacity="0.6" fill="#7681FF" width="575.008" height="763.637"/>
	
		<rect x="-124.134" y="-542.87" transform="matrix(0.5569 -0.8306 0.8306 0.5569 158.4091 167.029)" opacity="0.6" fill="#7F68FF" width="719.747" height="955.856"/>
</g>
<g>
	
		<rect x="1206.065" y="495.496" transform="matrix(0.9696 -0.2447 0.2447 0.9696 -105.312 330.218)" opacity="0.6" fill="#59CCFF" width="140.797" height="186.982"/>
	
		<rect x="937.386" y="393.466" transform="matrix(0.8733 -0.4873 0.4873 0.8733 -147.2024 600.2241)" opacity="0.6" fill="#63B3FF" width="285.535" height="379.2"/>
	
		<rect x="534.338" y="247.772" transform="matrix(0.7168 -0.6973 0.6973 0.7168 -159.7272 673.7249)" opacity="0.6" fill="#6C9AFF" width="430.27" height="571.419"/>
	
		<rect x="-904.098" y="-440.448" transform="matrix(-0.0146 0.9999 -0.9999 -0.0146 -345.182 607.3472)" opacity="0.6" fill="#894FFF" width="864.488" height="1148.076"/>
	
		<rect x="193.031" y="63.26" transform="matrix(0.5126 -0.8586 0.8586 0.5126 -147.9482 629.5198)" opacity="0.6" fill="#7681FF" width="575.007" height="763.637"/>
	
		<rect x="-286.449" y="-166.144" transform="matrix(0.2729 -0.962 0.962 0.2729 -246.5617 297.3268)" opacity="0.6" fill="#7F68FF" width="719.746" height="955.855"/>
</g>
</svg>
